<svg xmlns="http://www.w3.org/2000/svg" xmlns:xlink="http://www.w3.org/1999/xlink" width="500" zoomAndPan="magnify" viewBox="0 0 375 299.999988" height="400" preserveAspectRatio="xMidYMid meet" version="1.0"><defs><clipPath id="4e33349649"><path d="M 24.675781 75.183594 L 167.046875 75.183594 L 167.046875 221.203125 L 24.675781 221.203125 Z M 24.675781 75.183594 " clip-rule="nonzero"/></clipPath><clipPath id="f2f5d2a55f"><path d="M 117.074219 5.785156 L 259.445312 5.785156 L 259.445312 151.804688 L 117.074219 151.804688 Z M 117.074219 5.785156 " clip-rule="nonzero"/></clipPath><clipPath id="adfd63d525"><path d="M 209.34375 75.183594 L 351.71875 75.183594 L 351.71875 221.203125 L 209.34375 221.203125 Z M 209.34375 75.183594 " clip-rule="nonzero"/></clipPath><clipPath id="193238d56c"><path d="M 117.074219 148.195312 L 259.445312 148.195312 L 259.445312 294.214844 L 117.074219 294.214844 Z M 117.074219 148.195312 " clip-rule="nonzero"/></clipPath></defs><g clip-path="url(#4e33349649)"><path fill="#000000" d="M 165.644531 106.101562 L 96.832031 75.5625 C 96.1875 75.277344 95.539062 75.277344 94.894531 75.5625 L 26.078125 106.101562 C 25.652344 106.289062 25.3125 106.578125 25.058594 106.96875 C 24.804688 107.355469 24.675781 107.78125 24.675781 108.246094 L 24.675781 188.113281 C 24.675781 188.578125 24.804688 189.003906 25.058594 189.390625 C 25.3125 189.777344 25.652344 190.066406 26.078125 190.257812 L 94.894531 220.796875 C 95.539062 221.082031 96.1875 221.082031 96.832031 220.796875 L 165.644531 190.257812 C 166.070312 190.066406 166.414062 189.777344 166.667969 189.390625 C 166.921875 189.003906 167.046875 188.578125 167.046875 188.113281 L 167.046875 108.246094 C 167.046875 107.78125 166.921875 107.355469 166.667969 106.96875 C 166.414062 106.578125 166.070312 106.289062 165.644531 106.101562 Z M 93.488281 215.023438 L 29.421875 186.59375 L 29.421875 112.03125 L 93.488281 140.464844 Z M 95.863281 136.367188 L 32.667969 108.324219 L 95.863281 80.28125 L 159.058594 108.324219 Z M 162.300781 186.59375 L 98.234375 215.023438 L 98.234375 140.464844 L 162.300781 112.03125 Z M 162.300781 186.59375 " fill-opacity="1" fill-rule="nonzero"/></g><g clip-path="url(#f2f5d2a55f)"><path fill="#000000" d="M 258.042969 36.703125 L 189.230469 6.164062 C 188.582031 5.878906 187.9375 5.878906 187.289062 6.164062 L 118.476562 36.703125 C 118.050781 36.890625 117.710938 37.179688 117.457031 37.570312 C 117.203125 37.957031 117.074219 38.382812 117.074219 38.847656 L 117.074219 118.714844 C 117.074219 119.179688 117.203125 119.605469 117.457031 119.992188 C 117.710938 120.378906 118.050781 120.667969 118.476562 120.859375 L 187.289062 151.398438 C 187.9375 151.683594 188.582031 151.683594 189.230469 151.398438 L 258.042969 120.859375 C 258.46875 120.667969 258.808594 120.378906 259.066406 119.992188 C 259.320312 119.605469 259.445312 119.179688 259.445312 118.714844 L 259.445312 38.847656 C 259.445312 38.382812 259.320312 37.957031 259.066406 37.570312 C 258.808594 37.179688 258.46875 36.890625 258.042969 36.703125 Z M 185.886719 145.625 L 121.820312 117.195312 L 121.820312 42.632812 L 185.886719 71.066406 Z M 188.261719 66.96875 L 125.066406 38.925781 L 188.261719 10.882812 L 251.457031 38.925781 Z M 254.699219 117.195312 L 190.632812 145.625 L 190.632812 71.066406 L 254.699219 42.632812 Z M 254.699219 117.195312 " fill-opacity="1" fill-rule="nonzero"/></g><g clip-path="url(#adfd63d525)"><path fill="#000000" d="M 350.3125 106.101562 L 281.5 75.5625 C 280.855469 75.277344 280.207031 75.277344 279.5625 75.5625 L 210.75 106.101562 C 210.320312 106.289062 209.980469 106.578125 209.726562 106.96875 C 209.472656 107.355469 209.34375 107.78125 209.34375 108.246094 L 209.34375 188.113281 C 209.34375 188.578125 209.472656 189.003906 209.726562 189.390625 C 209.980469 189.777344 210.320312 190.066406 210.75 190.257812 L 279.5625 220.796875 C 280.207031 221.082031 280.855469 221.082031 281.5 220.796875 L 350.3125 190.257812 C 350.742188 190.066406 351.082031 189.777344 351.335938 189.390625 C 351.589844 189.003906 351.71875 188.578125 351.71875 188.113281 L 351.71875 108.246094 C 351.71875 107.78125 351.589844 107.355469 351.335938 106.96875 C 351.082031 106.578125 350.742188 106.289062 350.3125 106.101562 Z M 278.160156 215.023438 L 214.089844 186.59375 L 214.089844 112.03125 L 278.160156 140.464844 Z M 280.53125 136.367188 L 217.335938 108.324219 L 280.53125 80.28125 L 343.726562 108.324219 Z M 346.972656 186.59375 L 282.902344 215.023438 L 282.902344 140.464844 L 346.972656 112.03125 Z M 346.972656 186.59375 " fill-opacity="1" fill-rule="nonzero"/></g><g clip-path="url(#193238d56c)"><path fill="#000000" d="M 258.042969 179.113281 L 189.230469 148.574219 C 188.582031 148.289062 187.9375 148.289062 187.289062 148.574219 L 118.476562 179.113281 C 118.050781 179.300781 117.710938 179.589844 117.457031 179.976562 C 117.203125 180.367188 117.074219 180.792969 117.074219 181.253906 L 117.074219 261.125 C 117.074219 261.585938 117.203125 262.011719 117.457031 262.402344 C 117.710938 262.789062 118.050781 263.078125 118.476562 263.269531 L 187.289062 293.804688 C 187.9375 294.09375 188.582031 294.09375 189.230469 293.804688 L 258.042969 263.269531 C 258.46875 263.078125 258.808594 262.789062 259.066406 262.402344 C 259.320312 262.011719 259.445312 261.585938 259.445312 261.125 L 259.445312 181.253906 C 259.445312 180.792969 259.320312 180.367188 259.066406 179.976562 C 258.808594 179.589844 258.46875 179.300781 258.042969 179.113281 Z M 185.886719 288.035156 L 121.820312 259.605469 L 121.820312 185.042969 L 185.886719 213.476562 Z M 188.261719 209.378906 L 125.066406 181.335938 L 188.261719 153.292969 L 251.457031 181.335938 Z M 254.699219 259.605469 L 190.632812 288.035156 L 190.632812 213.476562 L 254.699219 185.042969 Z M 254.699219 259.605469 " fill-opacity="1" fill-rule="nonzero"/></g></svg>