<svg xmlns="http://www.w3.org/2000/svg" xmlns:xlink="http://www.w3.org/1999/xlink" width="500" zoomAndPan="magnify" viewBox="0 0 375 299.999988" height="400" preserveAspectRatio="xMidYMid meet" version="1.0"><defs><clipPath id="d9bbc3dd33"><path d="M 348.359375 6.035156 L 367.285156 6.035156 L 367.285156 294.503906 L 348.359375 294.503906 Z M 348.359375 6.035156 " clip-rule="nonzero"/></clipPath><clipPath id="6595b5716f"><path d="M 357.824219 294.503906 C 355.3125 294.503906 352.90625 293.503906 351.128906 291.730469 C 349.355469 289.957031 348.359375 287.546875 348.359375 285.039062 L 348.359375 15.5 C 348.359375 12.988281 349.355469 10.582031 351.128906 8.808594 C 352.90625 7.03125 355.3125 6.035156 357.824219 6.035156 C 360.332031 6.035156 362.738281 7.03125 364.515625 8.808594 C 366.289062 10.582031 367.285156 12.988281 367.285156 15.5 L 367.285156 285.039062 C 367.285156 287.546875 366.289062 289.957031 364.515625 291.730469 C 362.738281 293.503906 360.332031 294.503906 357.824219 294.503906 " clip-rule="nonzero"/></clipPath><clipPath id="e0c955b868"><path d="M 322.386719 65.925781 L 341.3125 65.925781 L 341.3125 294.507812 L 322.386719 294.507812 Z M 322.386719 65.925781 " clip-rule="nonzero"/></clipPath><clipPath id="327b52ba22"><path d="M 331.847656 294.507812 C 329.339844 294.507812 326.933594 293.507812 325.15625 291.734375 C 323.382812 289.960938 322.386719 287.550781 322.386719 285.042969 L 322.386719 75.390625 C 322.386719 72.882812 323.382812 70.472656 325.15625 68.699219 C 326.933594 66.925781 329.339844 65.925781 331.847656 65.925781 C 334.359375 65.925781 336.765625 66.925781 338.542969 68.699219 C 340.316406 70.472656 341.3125 72.882812 341.3125 75.390625 L 341.3125 285.042969 C 341.3125 287.550781 340.316406 289.960938 338.542969 291.734375 C 336.765625 293.507812 334.359375 294.507812 331.847656 294.507812 " clip-rule="nonzero"/></clipPath><clipPath id="4a322f418a"><path d="M 295.886719 125.753906 L 314.8125 125.753906 L 314.8125 294.507812 L 295.886719 294.507812 Z M 295.886719 125.753906 " clip-rule="nonzero"/></clipPath><clipPath id="f030b41cdd"><path d="M 305.351562 294.507812 C 302.839844 294.507812 300.433594 293.511719 298.65625 291.734375 C 296.882812 289.960938 295.886719 287.554688 295.886719 285.042969 L 295.886719 135.21875 C 295.886719 132.707031 296.882812 130.300781 298.65625 128.527344 C 300.433594 126.75 302.839844 125.753906 305.351562 125.753906 C 307.859375 125.753906 310.265625 126.75 312.042969 128.527344 C 313.816406 130.300781 314.8125 132.707031 314.8125 135.21875 L 314.8125 285.042969 C 314.8125 287.554688 313.816406 289.960938 312.042969 291.734375 C 310.265625 293.511719 307.859375 294.507812 305.351562 294.507812 " clip-rule="nonzero"/></clipPath><clipPath id="252268625f"><path d="M 269.914062 185.984375 L 288.839844 185.984375 L 288.839844 294.511719 L 269.914062 294.511719 Z M 269.914062 185.984375 " clip-rule="nonzero"/></clipPath><clipPath id="fd4e6435e7"><path d="M 279.375 294.511719 C 276.867188 294.511719 274.460938 293.511719 272.683594 291.738281 C 270.910156 289.964844 269.914062 287.554688 269.914062 285.046875 L 269.914062 195.445312 C 269.914062 192.9375 270.910156 190.53125 272.683594 188.753906 C 274.460938 186.980469 276.867188 185.984375 279.375 185.984375 C 281.886719 185.984375 284.292969 186.980469 286.070312 188.753906 C 287.84375 190.53125 288.839844 192.9375 288.839844 195.445312 L 288.839844 285.046875 C 288.839844 287.554688 287.84375 289.964844 286.070312 291.738281 C 284.292969 293.511719 281.886719 294.511719 279.375 294.511719 " clip-rule="nonzero"/></clipPath><clipPath id="58fac633b9"><path d="M 243.414062 125.753906 L 262.339844 125.753906 L 262.339844 294.507812 L 243.414062 294.507812 Z M 243.414062 125.753906 " clip-rule="nonzero"/></clipPath><clipPath id="91e4007379"><path d="M 252.878906 294.507812 C 250.367188 294.507812 247.960938 293.511719 246.1875 291.734375 C 244.410156 289.960938 243.414062 287.554688 243.414062 285.042969 L 243.414062 135.21875 C 243.414062 132.707031 244.410156 130.300781 246.1875 128.527344 C 247.960938 126.75 250.367188 125.753906 252.878906 125.753906 C 255.386719 125.753906 257.796875 126.75 259.570312 128.527344 C 261.34375 130.300781 262.339844 132.707031 262.339844 135.21875 L 262.339844 285.042969 C 262.339844 287.554688 261.34375 289.960938 259.570312 291.734375 C 257.796875 293.511719 255.386719 294.507812 252.878906 294.507812 " clip-rule="nonzero"/></clipPath><clipPath id="e1cd0e2af9"><path d="M 217.441406 65.925781 L 236.367188 65.925781 L 236.367188 294.507812 L 217.441406 294.507812 Z M 217.441406 65.925781 " clip-rule="nonzero"/></clipPath><clipPath id="d4333bd335"><path d="M 226.90625 294.507812 C 224.394531 294.507812 221.988281 293.507812 220.210938 291.734375 C 218.4375 289.960938 217.441406 287.550781 217.441406 285.042969 L 217.441406 75.390625 C 217.441406 72.882812 218.4375 70.472656 220.210938 68.699219 C 221.988281 66.925781 224.394531 65.925781 226.90625 65.925781 C 229.414062 65.925781 231.820312 66.925781 233.597656 68.699219 C 235.371094 70.472656 236.367188 72.882812 236.367188 75.390625 L 236.367188 285.042969 C 236.367188 287.550781 235.371094 289.960938 233.597656 291.734375 C 231.820312 293.507812 229.414062 294.507812 226.90625 294.507812 " clip-rule="nonzero"/></clipPath><clipPath id="a395e40b72"><path d="M 190.941406 6.035156 L 209.871094 6.035156 L 209.871094 294.503906 L 190.941406 294.503906 Z M 190.941406 6.035156 " clip-rule="nonzero"/></clipPath><clipPath id="5f21b65061"><path d="M 200.40625 294.503906 C 197.894531 294.503906 195.488281 293.503906 193.714844 291.730469 C 191.9375 289.957031 190.941406 287.546875 190.941406 285.039062 L 190.941406 15.5 C 190.941406 12.988281 191.9375 10.582031 193.714844 8.808594 C 195.488281 7.03125 197.894531 6.035156 200.40625 6.035156 C 202.914062 6.035156 205.324219 7.03125 207.097656 8.808594 C 208.871094 10.582031 209.871094 12.988281 209.871094 15.5 L 209.871094 285.039062 C 209.871094 287.546875 208.871094 289.957031 207.097656 291.730469 C 205.324219 293.503906 202.914062 294.503906 200.40625 294.503906 " clip-rule="nonzero"/></clipPath><clipPath id="8628b18625"><path d="M 164.441406 185.984375 L 183.371094 185.984375 L 183.371094 294.511719 L 164.441406 294.511719 Z M 164.441406 185.984375 " clip-rule="nonzero"/></clipPath><clipPath id="3107b30832"><path d="M 173.90625 294.511719 C 171.394531 294.511719 168.988281 293.511719 167.214844 291.738281 C 165.441406 289.964844 164.441406 287.554688 164.441406 285.046875 L 164.441406 195.445312 C 164.441406 192.9375 165.441406 190.53125 167.214844 188.753906 C 168.988281 186.980469 171.394531 185.984375 173.90625 185.984375 C 176.417969 185.984375 178.824219 186.980469 180.597656 188.753906 C 182.375 190.53125 183.371094 192.9375 183.371094 195.445312 L 183.371094 285.046875 C 183.371094 287.554688 182.375 289.964844 180.597656 291.738281 C 178.824219 293.511719 176.417969 294.511719 173.90625 294.511719 " clip-rule="nonzero"/></clipPath><clipPath id="a366de439f"><path d="M 137.941406 125.753906 L 156.871094 125.753906 L 156.871094 294.507812 L 137.941406 294.507812 Z M 137.941406 125.753906 " clip-rule="nonzero"/></clipPath><clipPath id="63286b171a"><path d="M 147.40625 294.507812 C 144.898438 294.507812 142.488281 293.511719 140.714844 291.734375 C 138.941406 289.960938 137.941406 287.554688 137.941406 285.042969 L 137.941406 135.21875 C 137.941406 132.707031 138.941406 130.300781 140.714844 128.527344 C 142.488281 126.75 144.898438 125.753906 147.40625 125.753906 C 149.917969 125.753906 152.324219 126.75 154.097656 128.527344 C 155.875 130.300781 156.871094 132.707031 156.871094 135.21875 L 156.871094 285.042969 C 156.871094 287.554688 155.875 289.960938 154.097656 291.734375 C 152.324219 293.511719 149.917969 294.507812 147.40625 294.507812 " clip-rule="nonzero"/></clipPath><clipPath id="be500eaf71"><path d="M 111.96875 65.925781 L 130.898438 65.925781 L 130.898438 294.507812 L 111.96875 294.507812 Z M 111.96875 65.925781 " clip-rule="nonzero"/></clipPath><clipPath id="c420fedecf"><path d="M 121.433594 294.507812 C 118.925781 294.507812 116.515625 293.507812 114.742188 291.734375 C 112.96875 289.960938 111.96875 287.550781 111.96875 285.042969 L 111.96875 75.390625 C 111.96875 72.882812 112.96875 70.472656 114.742188 68.699219 C 116.515625 66.925781 118.925781 65.925781 121.433594 65.925781 C 123.945312 65.925781 126.351562 66.925781 128.125 68.699219 C 129.902344 70.472656 130.898438 72.882812 130.898438 75.390625 L 130.898438 285.042969 C 130.898438 287.550781 129.902344 289.960938 128.125 291.734375 C 126.351562 293.507812 123.945312 294.507812 121.433594 294.507812 " clip-rule="nonzero"/></clipPath><clipPath id="95f4d7054a"><path d="M 85.542969 6.035156 L 104.46875 6.035156 L 104.46875 294.503906 L 85.542969 294.503906 Z M 85.542969 6.035156 " clip-rule="nonzero"/></clipPath><clipPath id="b0b838e025"><path d="M 95.007812 294.503906 C 92.496094 294.503906 90.089844 293.503906 88.3125 291.730469 C 86.539062 289.957031 85.542969 287.546875 85.542969 285.039062 L 85.542969 15.5 C 85.542969 12.988281 86.539062 10.582031 88.3125 8.808594 C 90.089844 7.03125 92.496094 6.035156 95.007812 6.035156 C 97.515625 6.035156 99.921875 7.03125 101.699219 8.808594 C 103.472656 10.582031 104.46875 12.988281 104.46875 15.5 L 104.46875 285.039062 C 104.46875 287.546875 103.472656 289.957031 101.699219 291.730469 C 99.921875 293.503906 97.515625 294.503906 95.007812 294.503906 " clip-rule="nonzero"/></clipPath><clipPath id="7d8a989d8e"><path d="M 59.496094 65.925781 L 78.425781 65.925781 L 78.425781 294.507812 L 59.496094 294.507812 Z M 59.496094 65.925781 " clip-rule="nonzero"/></clipPath><clipPath id="54643ce202"><path d="M 68.960938 294.507812 C 66.453125 294.507812 64.042969 293.507812 62.269531 291.734375 C 60.496094 289.960938 59.496094 287.550781 59.496094 285.042969 L 59.496094 75.390625 C 59.496094 72.882812 60.496094 70.472656 62.269531 68.699219 C 64.042969 66.925781 66.453125 65.925781 68.960938 65.925781 C 71.472656 65.925781 73.878906 66.925781 75.652344 68.699219 C 77.429688 70.472656 78.425781 72.882812 78.425781 75.390625 L 78.425781 285.042969 C 78.425781 287.550781 77.429688 289.960938 75.652344 291.734375 C 73.878906 293.507812 71.472656 294.507812 68.960938 294.507812 " clip-rule="nonzero"/></clipPath><clipPath id="54578f2419"><path d="M 33 125.753906 L 51.925781 125.753906 L 51.925781 294.507812 L 33 294.507812 Z M 33 125.753906 " clip-rule="nonzero"/></clipPath><clipPath id="e6c4814af6"><path d="M 42.460938 294.507812 C 39.953125 294.507812 37.546875 293.511719 35.769531 291.734375 C 33.996094 289.960938 33 287.554688 33 285.042969 L 33 135.21875 C 33 132.707031 33.996094 130.300781 35.769531 128.527344 C 37.546875 126.75 39.953125 125.753906 42.460938 125.753906 C 44.972656 125.753906 47.378906 126.75 49.15625 128.527344 C 50.929688 130.300781 51.925781 132.707031 51.925781 135.21875 L 51.925781 285.042969 C 51.925781 287.554688 50.929688 289.960938 49.15625 291.734375 C 47.378906 293.511719 44.972656 294.507812 42.460938 294.507812 " clip-rule="nonzero"/></clipPath><clipPath id="3943202be3"><path d="M 7.015625 185.984375 L 25.917969 185.984375 L 25.917969 294.511719 L 7.015625 294.511719 Z M 7.015625 185.984375 " clip-rule="nonzero"/></clipPath><clipPath id="e0f765cd88"><path d="M 16.46875 294.511719 C 13.960938 294.511719 11.558594 293.515625 9.785156 291.742188 C 8.011719 289.96875 7.015625 287.566406 7.015625 285.058594 L 7.015625 195.433594 C 7.015625 192.925781 8.011719 190.523438 9.785156 188.75 C 11.558594 186.976562 13.960938 185.984375 16.46875 185.984375 C 18.972656 185.984375 21.378906 186.976562 23.148438 188.75 C 24.921875 190.523438 25.917969 192.925781 25.917969 195.433594 L 25.917969 285.058594 C 25.917969 287.566406 24.921875 289.96875 23.148438 291.742188 C 21.378906 293.515625 18.972656 294.511719 16.46875 294.511719 " clip-rule="nonzero"/></clipPath></defs><g clip-path="url(#d9bbc3dd33)"><g clip-path="url(#6595b5716f)"><path fill="#545454" d="M 367.285156 294.503906 L 348.359375 294.503906 L 348.359375 6.035156 L 367.285156 6.035156 Z M 367.285156 294.503906 " fill-opacity="1" fill-rule="nonzero"/></g></g><g clip-path="url(#e0c955b868)"><g clip-path="url(#327b52ba22)"><path fill="#545454" d="M 341.3125 294.507812 L 322.386719 294.507812 L 322.386719 65.925781 L 341.3125 65.925781 Z M 341.3125 294.507812 " fill-opacity="1" fill-rule="nonzero"/></g></g><g clip-path="url(#4a322f418a)"><g clip-path="url(#f030b41cdd)"><path fill="#545454" d="M 314.8125 294.507812 L 295.886719 294.507812 L 295.886719 125.753906 L 314.8125 125.753906 Z M 314.8125 294.507812 " fill-opacity="1" fill-rule="nonzero"/></g></g><g clip-path="url(#252268625f)"><g clip-path="url(#fd4e6435e7)"><path fill="#545454" d="M 288.839844 294.511719 L 269.914062 294.511719 L 269.914062 185.984375 L 288.839844 185.984375 Z M 288.839844 294.511719 " fill-opacity="1" fill-rule="nonzero"/></g></g><g clip-path="url(#58fac633b9)"><g clip-path="url(#91e4007379)"><path fill="#545454" d="M 262.339844 294.507812 L 243.414062 294.507812 L 243.414062 125.753906 L 262.339844 125.753906 Z M 262.339844 294.507812 " fill-opacity="1" fill-rule="nonzero"/></g></g><g clip-path="url(#e1cd0e2af9)"><g clip-path="url(#d4333bd335)"><path fill="#545454" d="M 236.367188 294.507812 L 217.441406 294.507812 L 217.441406 65.925781 L 236.367188 65.925781 Z M 236.367188 294.507812 " fill-opacity="1" fill-rule="nonzero"/></g></g><g clip-path="url(#a395e40b72)"><g clip-path="url(#5f21b65061)"><path fill="#545454" d="M 209.871094 294.503906 L 190.941406 294.503906 L 190.941406 6.035156 L 209.871094 6.035156 Z M 209.871094 294.503906 " fill-opacity="1" fill-rule="nonzero"/></g></g><g clip-path="url(#8628b18625)"><g clip-path="url(#3107b30832)"><path fill="#545454" d="M 183.371094 294.511719 L 164.441406 294.511719 L 164.441406 185.984375 L 183.371094 185.984375 Z M 183.371094 294.511719 " fill-opacity="1" fill-rule="nonzero"/></g></g><g clip-path="url(#a366de439f)"><g clip-path="url(#63286b171a)"><path fill="#545454" d="M 156.871094 294.507812 L 137.941406 294.507812 L 137.941406 125.753906 L 156.871094 125.753906 Z M 156.871094 294.507812 " fill-opacity="1" fill-rule="nonzero"/></g></g><g clip-path="url(#be500eaf71)"><g clip-path="url(#c420fedecf)"><path fill="#545454" d="M 130.898438 294.507812 L 111.96875 294.507812 L 111.96875 65.925781 L 130.898438 65.925781 Z M 130.898438 294.507812 " fill-opacity="1" fill-rule="nonzero"/></g></g><g clip-path="url(#95f4d7054a)"><g clip-path="url(#b0b838e025)"><path fill="#545454" d="M 104.46875 294.503906 L 85.542969 294.503906 L 85.542969 6.035156 L 104.46875 6.035156 Z M 104.46875 294.503906 " fill-opacity="1" fill-rule="nonzero"/></g></g><g clip-path="url(#7d8a989d8e)"><g clip-path="url(#54643ce202)"><path fill="#545454" d="M 78.425781 294.507812 L 59.496094 294.507812 L 59.496094 65.925781 L 78.425781 65.925781 Z M 78.425781 294.507812 " fill-opacity="1" fill-rule="nonzero"/></g></g><g clip-path="url(#54578f2419)"><g clip-path="url(#e6c4814af6)"><path fill="#545454" d="M 51.925781 294.507812 L 33 294.507812 L 33 125.753906 L 51.925781 125.753906 Z M 51.925781 294.507812 " fill-opacity="1" fill-rule="nonzero"/></g></g><g clip-path="url(#3943202be3)"><g clip-path="url(#e0f765cd88)"><path fill="#545454" d="M 25.917969 294.511719 L 7.015625 294.511719 L 7.015625 185.984375 L 25.917969 185.984375 Z M 25.917969 294.511719 " fill-opacity="1" fill-rule="nonzero"/></g></g></svg>