<svg xmlns="http://www.w3.org/2000/svg" xmlns:xlink="http://www.w3.org/1999/xlink" width="500" zoomAndPan="magnify" viewBox="0 0 375 74.999997" height="100" preserveAspectRatio="xMidYMid meet" version="1.0"><defs><g/><clipPath id="b37ab0a7c9"><path d="M 90.742188 14.152344 L 95.554688 14.152344 L 95.554688 59.332031 L 90.742188 59.332031 Z M 90.742188 14.152344 " clip-rule="nonzero"/></clipPath><clipPath id="12d45a19f8"><path d="M 93.148438 59.332031 C 92.511719 59.332031 91.898438 59.082031 91.445312 58.628906 C 90.996094 58.175781 90.742188 57.566406 90.742188 56.925781 L 90.742188 16.5625 C 90.742188 15.921875 90.996094 15.308594 91.445312 14.859375 C 91.898438 14.40625 92.511719 14.152344 93.148438 14.152344 C 93.785156 14.152344 94.398438 14.40625 94.851562 14.859375 C 95.300781 15.308594 95.554688 15.921875 95.554688 16.5625 L 95.554688 56.925781 C 95.554688 57.566406 95.300781 58.175781 94.851562 58.628906 C 94.398438 59.082031 93.785156 59.332031 93.148438 59.332031 " clip-rule="nonzero"/></clipPath><clipPath id="b50da750e2"><path d="M 84.136719 23.683594 L 88.949219 23.683594 L 88.949219 59.328125 L 84.136719 59.328125 Z M 84.136719 23.683594 " clip-rule="nonzero"/></clipPath><clipPath id="13a692904a"><path d="M 86.542969 59.328125 C 85.90625 59.328125 85.292969 59.074219 84.839844 58.621094 C 84.390625 58.171875 84.136719 57.558594 84.136719 56.921875 L 84.136719 26.089844 C 84.136719 25.449219 84.390625 24.839844 84.839844 24.386719 C 85.292969 23.9375 85.90625 23.683594 86.542969 23.683594 C 87.183594 23.683594 87.792969 23.9375 88.246094 24.386719 C 88.695312 24.839844 88.949219 25.449219 88.949219 26.089844 L 88.949219 56.921875 C 88.949219 57.558594 88.695312 58.171875 88.246094 58.621094 C 87.792969 59.074219 87.183594 59.328125 86.542969 59.328125 " clip-rule="nonzero"/></clipPath><clipPath id="929b461123"><path d="M 77.398438 32.445312 L 82.210938 32.445312 L 82.210938 59.332031 L 77.398438 59.332031 Z M 77.398438 32.445312 " clip-rule="nonzero"/></clipPath><clipPath id="e4ac5ea00e"><path d="M 79.804688 59.332031 C 79.167969 59.332031 78.554688 59.078125 78.101562 58.628906 C 77.652344 58.175781 77.398438 57.5625 77.398438 56.925781 L 77.398438 34.851562 C 77.398438 34.214844 77.652344 33.601562 78.101562 33.148438 C 78.554688 32.699219 79.167969 32.445312 79.804688 32.445312 C 80.441406 32.445312 81.054688 32.699219 81.507812 33.148438 C 81.957031 33.601562 82.210938 34.214844 82.210938 34.851562 L 82.210938 56.925781 C 82.210938 57.5625 81.957031 58.175781 81.507812 58.628906 C 81.054688 59.078125 80.441406 59.332031 79.804688 59.332031 " clip-rule="nonzero"/></clipPath><clipPath id="87f2a9b37f"><path d="M 70.792969 41.511719 L 75.605469 41.511719 L 75.605469 59.332031 L 70.792969 59.332031 Z M 70.792969 41.511719 " clip-rule="nonzero"/></clipPath><clipPath id="c200a5c0a8"><path d="M 73.199219 59.332031 C 72.5625 59.332031 71.949219 59.078125 71.5 58.628906 C 71.046875 58.175781 70.792969 57.566406 70.792969 56.925781 L 70.792969 43.917969 C 70.792969 43.277344 71.046875 42.667969 71.5 42.214844 C 71.949219 41.765625 72.5625 41.511719 73.199219 41.511719 C 73.839844 41.511719 74.449219 41.765625 74.902344 42.214844 C 75.351562 42.667969 75.605469 43.277344 75.605469 43.917969 L 75.605469 56.925781 C 75.605469 57.566406 75.351562 58.175781 74.902344 58.628906 C 74.449219 59.078125 73.839844 59.332031 73.199219 59.332031 " clip-rule="nonzero"/></clipPath><clipPath id="f797b85614"><path d="M 64.054688 32.445312 L 68.867188 32.445312 L 68.867188 59.332031 L 64.054688 59.332031 Z M 64.054688 32.445312 " clip-rule="nonzero"/></clipPath><clipPath id="33fda29c88"><path d="M 66.460938 59.332031 C 65.824219 59.332031 65.210938 59.078125 64.761719 58.628906 C 64.308594 58.175781 64.054688 57.5625 64.054688 56.925781 L 64.054688 34.851562 C 64.054688 34.214844 64.308594 33.601562 64.761719 33.148438 C 65.210938 32.699219 65.824219 32.445312 66.460938 32.445312 C 67.101562 32.445312 67.710938 32.699219 68.164062 33.148438 C 68.613281 33.601562 68.867188 34.214844 68.867188 34.851562 L 68.867188 56.925781 C 68.867188 57.5625 68.613281 58.175781 68.164062 58.628906 C 67.710938 59.078125 67.101562 59.332031 66.460938 59.332031 " clip-rule="nonzero"/></clipPath><clipPath id="2fce3c1caf"><path d="M 57.449219 23.683594 L 62.265625 23.683594 L 62.265625 59.328125 L 57.449219 59.328125 Z M 57.449219 23.683594 " clip-rule="nonzero"/></clipPath><clipPath id="86d7ef6143"><path d="M 59.855469 59.328125 C 59.21875 59.328125 58.605469 59.074219 58.15625 58.621094 C 57.703125 58.171875 57.449219 57.558594 57.449219 56.921875 L 57.449219 26.089844 C 57.449219 25.449219 57.703125 24.839844 58.15625 24.386719 C 58.605469 23.9375 59.21875 23.683594 59.855469 23.683594 C 60.496094 23.683594 61.109375 23.9375 61.558594 24.386719 C 62.011719 24.839844 62.265625 25.449219 62.265625 26.089844 L 62.265625 56.921875 C 62.265625 57.558594 62.011719 58.171875 61.558594 58.621094 C 61.109375 59.074219 60.496094 59.328125 59.855469 59.328125 " clip-rule="nonzero"/></clipPath><clipPath id="4312b8ea44"><path d="M 50.710938 14.152344 L 55.527344 14.152344 L 55.527344 59.332031 L 50.710938 59.332031 Z M 50.710938 14.152344 " clip-rule="nonzero"/></clipPath><clipPath id="615c71d5ff"><path d="M 53.117188 59.332031 C 52.480469 59.332031 51.867188 59.082031 51.417969 58.628906 C 50.964844 58.175781 50.710938 57.566406 50.710938 56.925781 L 50.710938 16.5625 C 50.710938 15.921875 50.964844 15.308594 51.417969 14.859375 C 51.867188 14.40625 52.480469 14.152344 53.117188 14.152344 C 53.757812 14.152344 54.371094 14.40625 54.820312 14.859375 C 55.273438 15.308594 55.527344 15.921875 55.527344 16.5625 L 55.527344 56.925781 C 55.527344 57.566406 55.273438 58.175781 54.820312 58.628906 C 54.371094 59.082031 53.757812 59.332031 53.117188 59.332031 " clip-rule="nonzero"/></clipPath><clipPath id="c322bf45bb"><path d="M 43.972656 41.511719 L 48.785156 41.511719 L 48.785156 59.332031 L 43.972656 59.332031 Z M 43.972656 41.511719 " clip-rule="nonzero"/></clipPath><clipPath id="b6fa8c2cef"><path d="M 46.378906 59.332031 C 45.742188 59.332031 45.128906 59.078125 44.679688 58.628906 C 44.226562 58.175781 43.972656 57.566406 43.972656 56.925781 L 43.972656 43.917969 C 43.972656 43.277344 44.226562 42.667969 44.679688 42.214844 C 45.128906 41.765625 45.742188 41.511719 46.378906 41.511719 C 47.019531 41.511719 47.628906 41.765625 48.082031 42.214844 C 48.535156 42.667969 48.785156 43.277344 48.785156 43.917969 L 48.785156 56.925781 C 48.785156 57.566406 48.535156 58.175781 48.082031 58.628906 C 47.628906 59.078125 47.019531 59.332031 46.378906 59.332031 " clip-rule="nonzero"/></clipPath><clipPath id="065b037f4b"><path d="M 37.234375 32.445312 L 42.046875 32.445312 L 42.046875 59.332031 L 37.234375 59.332031 Z M 37.234375 32.445312 " clip-rule="nonzero"/></clipPath><clipPath id="0f52c3a35f"><path d="M 39.640625 59.332031 C 39.003906 59.332031 38.390625 59.078125 37.941406 58.628906 C 37.488281 58.175781 37.234375 57.5625 37.234375 56.925781 L 37.234375 34.851562 C 37.234375 34.214844 37.488281 33.601562 37.941406 33.148438 C 38.390625 32.699219 39.003906 32.445312 39.640625 32.445312 C 40.28125 32.445312 40.890625 32.699219 41.34375 33.148438 C 41.796875 33.601562 42.046875 34.214844 42.046875 34.851562 L 42.046875 56.925781 C 42.046875 57.5625 41.796875 58.175781 41.34375 58.628906 C 40.890625 59.078125 40.28125 59.332031 39.640625 59.332031 " clip-rule="nonzero"/></clipPath><clipPath id="1b998da1ab"><path d="M 30.628906 23.683594 L 35.445312 23.683594 L 35.445312 59.328125 L 30.628906 59.328125 Z M 30.628906 23.683594 " clip-rule="nonzero"/></clipPath><clipPath id="5babf6f779"><path d="M 33.039062 59.328125 C 32.398438 59.328125 31.785156 59.074219 31.335938 58.621094 C 30.882812 58.171875 30.628906 57.558594 30.628906 56.921875 L 30.628906 26.089844 C 30.628906 25.449219 30.882812 24.839844 31.335938 24.386719 C 31.785156 23.9375 32.398438 23.683594 33.039062 23.683594 C 33.675781 23.683594 34.289062 23.9375 34.738281 24.386719 C 35.191406 24.839844 35.445312 25.449219 35.445312 26.089844 L 35.445312 56.921875 C 35.445312 57.558594 35.191406 58.171875 34.738281 58.621094 C 34.289062 59.074219 33.675781 59.328125 33.039062 59.328125 " clip-rule="nonzero"/></clipPath><clipPath id="b9e8130827"><path d="M 23.890625 14.152344 L 28.707031 14.152344 L 28.707031 59.332031 L 23.890625 59.332031 Z M 23.890625 14.152344 " clip-rule="nonzero"/></clipPath><clipPath id="0f2bbbba7e"><path d="M 26.300781 59.332031 C 25.660156 59.332031 25.046875 59.082031 24.597656 58.628906 C 24.144531 58.175781 23.890625 57.566406 23.890625 56.925781 L 23.890625 16.5625 C 23.890625 15.921875 24.144531 15.308594 24.597656 14.859375 C 25.046875 14.40625 25.660156 14.152344 26.300781 14.152344 C 26.9375 14.152344 27.550781 14.40625 28 14.859375 C 28.453125 15.308594 28.707031 15.921875 28.707031 16.5625 L 28.707031 56.925781 C 28.707031 57.566406 28.453125 58.175781 28 58.628906 C 27.550781 59.082031 26.9375 59.332031 26.300781 59.332031 " clip-rule="nonzero"/></clipPath><clipPath id="15d9b792f0"><path d="M 17.289062 23.683594 L 22.101562 23.683594 L 22.101562 59.328125 L 17.289062 59.328125 Z M 17.289062 23.683594 " clip-rule="nonzero"/></clipPath><clipPath id="c25d6a704d"><path d="M 19.695312 59.328125 C 19.054688 59.328125 18.445312 59.074219 17.992188 58.621094 C 17.542969 58.171875 17.289062 57.558594 17.289062 56.921875 L 17.289062 26.089844 C 17.289062 25.449219 17.542969 24.839844 17.992188 24.386719 C 18.445312 23.9375 19.054688 23.683594 19.695312 23.683594 C 20.332031 23.683594 20.945312 23.9375 21.394531 24.386719 C 21.847656 24.839844 22.101562 25.449219 22.101562 26.089844 L 22.101562 56.921875 C 22.101562 57.558594 21.847656 58.171875 21.394531 58.621094 C 20.945312 59.074219 20.332031 59.328125 19.695312 59.328125 " clip-rule="nonzero"/></clipPath><clipPath id="eea77c17f8"><path d="M 10.550781 32.445312 L 15.363281 32.445312 L 15.363281 59.332031 L 10.550781 59.332031 Z M 10.550781 32.445312 " clip-rule="nonzero"/></clipPath><clipPath id="b7a8bf4eed"><path d="M 12.957031 59.332031 C 12.316406 59.332031 11.707031 59.078125 11.253906 58.628906 C 10.804688 58.175781 10.550781 57.5625 10.550781 56.925781 L 10.550781 34.851562 C 10.550781 34.214844 10.804688 33.601562 11.253906 33.148438 C 11.707031 32.699219 12.316406 32.445312 12.957031 32.445312 C 13.59375 32.445312 14.207031 32.699219 14.65625 33.148438 C 15.109375 33.601562 15.363281 34.214844 15.363281 34.851562 L 15.363281 56.925781 C 15.363281 57.5625 15.109375 58.175781 14.65625 58.628906 C 14.207031 59.078125 13.59375 59.332031 12.957031 59.332031 " clip-rule="nonzero"/></clipPath><clipPath id="8fb9811116"><path d="M 3.953125 41.511719 L 8.757812 41.511719 L 8.757812 59.332031 L 3.953125 59.332031 Z M 3.953125 41.511719 " clip-rule="nonzero"/></clipPath><clipPath id="aa321cca4f"><path d="M 6.355469 59.332031 C 5.71875 59.332031 5.105469 59.082031 4.65625 58.628906 C 4.203125 58.179688 3.953125 57.566406 3.953125 56.929688 L 3.953125 43.914062 C 3.953125 43.277344 4.203125 42.664062 4.65625 42.214844 C 5.105469 41.765625 5.71875 41.511719 6.355469 41.511719 C 6.992188 41.511719 7.601562 41.765625 8.054688 42.214844 C 8.503906 42.664062 8.757812 43.277344 8.757812 43.914062 L 8.757812 56.929688 C 8.757812 57.566406 8.503906 58.179688 8.054688 58.628906 C 7.601562 59.082031 6.992188 59.332031 6.355469 59.332031 " clip-rule="nonzero"/></clipPath></defs><g clip-path="url(#b37ab0a7c9)"><g clip-path="url(#12d45a19f8)"><path fill="#d2c2b0" d="M 95.554688 59.332031 L 90.742188 59.332031 L 90.742188 14.152344 L 95.554688 14.152344 Z M 95.554688 59.332031 " fill-opacity="1" fill-rule="nonzero"/></g></g><g clip-path="url(#b50da750e2)"><g clip-path="url(#13a692904a)"><path fill="#d2c2b0" d="M 88.949219 59.328125 L 84.136719 59.328125 L 84.136719 23.683594 L 88.949219 23.683594 Z M 88.949219 59.328125 " fill-opacity="1" fill-rule="nonzero"/></g></g><g clip-path="url(#929b461123)"><g clip-path="url(#e4ac5ea00e)"><path fill="#d2c2b0" d="M 82.210938 59.332031 L 77.398438 59.332031 L 77.398438 32.445312 L 82.210938 32.445312 Z M 82.210938 59.332031 " fill-opacity="1" fill-rule="nonzero"/></g></g><g clip-path="url(#87f2a9b37f)"><g clip-path="url(#c200a5c0a8)"><path fill="#d2c2b0" d="M 75.605469 59.332031 L 70.792969 59.332031 L 70.792969 41.511719 L 75.605469 41.511719 Z M 75.605469 59.332031 " fill-opacity="1" fill-rule="nonzero"/></g></g><g clip-path="url(#f797b85614)"><g clip-path="url(#33fda29c88)"><path fill="#d2c2b0" d="M 68.867188 59.332031 L 64.054688 59.332031 L 64.054688 32.445312 L 68.867188 32.445312 Z M 68.867188 59.332031 " fill-opacity="1" fill-rule="nonzero"/></g></g><g clip-path="url(#2fce3c1caf)"><g clip-path="url(#86d7ef6143)"><path fill="#d2c2b0" d="M 62.265625 59.328125 L 57.449219 59.328125 L 57.449219 23.683594 L 62.265625 23.683594 Z M 62.265625 59.328125 " fill-opacity="1" fill-rule="nonzero"/></g></g><g clip-path="url(#4312b8ea44)"><g clip-path="url(#615c71d5ff)"><path fill="#d2c2b0" d="M 55.527344 59.332031 L 50.710938 59.332031 L 50.710938 14.152344 L 55.527344 14.152344 Z M 55.527344 59.332031 " fill-opacity="1" fill-rule="nonzero"/></g></g><g clip-path="url(#c322bf45bb)"><g clip-path="url(#b6fa8c2cef)"><path fill="#d2c2b0" d="M 48.785156 59.332031 L 43.972656 59.332031 L 43.972656 41.511719 L 48.785156 41.511719 Z M 48.785156 59.332031 " fill-opacity="1" fill-rule="nonzero"/></g></g><g clip-path="url(#065b037f4b)"><g clip-path="url(#0f52c3a35f)"><path fill="#d2c2b0" d="M 42.046875 59.332031 L 37.234375 59.332031 L 37.234375 32.445312 L 42.046875 32.445312 Z M 42.046875 59.332031 " fill-opacity="1" fill-rule="nonzero"/></g></g><g clip-path="url(#1b998da1ab)"><g clip-path="url(#5babf6f779)"><path fill="#d2c2b0" d="M 35.445312 59.328125 L 30.628906 59.328125 L 30.628906 23.683594 L 35.445312 23.683594 Z M 35.445312 59.328125 " fill-opacity="1" fill-rule="nonzero"/></g></g><g clip-path="url(#b9e8130827)"><g clip-path="url(#0f2bbbba7e)"><path fill="#d2c2b0" d="M 28.707031 59.332031 L 23.890625 59.332031 L 23.890625 14.152344 L 28.707031 14.152344 Z M 28.707031 59.332031 " fill-opacity="1" fill-rule="nonzero"/></g></g><g clip-path="url(#15d9b792f0)"><g clip-path="url(#c25d6a704d)"><path fill="#d2c2b0" d="M 22.101562 59.328125 L 17.289062 59.328125 L 17.289062 23.683594 L 22.101562 23.683594 Z M 22.101562 59.328125 " fill-opacity="1" fill-rule="nonzero"/></g></g><g clip-path="url(#eea77c17f8)"><g clip-path="url(#b7a8bf4eed)"><path fill="#d2c2b0" d="M 15.363281 59.332031 L 10.550781 59.332031 L 10.550781 32.445312 L 15.363281 32.445312 Z M 15.363281 59.332031 " fill-opacity="1" fill-rule="nonzero"/></g></g><g clip-path="url(#8fb9811116)"><g clip-path="url(#aa321cca4f)"><path fill="#d2c2b0" d="M 8.757812 59.332031 L 3.953125 59.332031 L 3.953125 41.511719 L 8.757812 41.511719 Z M 8.757812 59.332031 " fill-opacity="1" fill-rule="nonzero"/></g></g><g fill="#a6a6a6" fill-opacity="1"><g transform="translate(103.525209, 55.09186)"><g><path d="M 36.9375 0 L 30.640625 0 L 30.640625 -19.546875 C 30.640625 -20.972656 30.363281 -22.269531 29.8125 -23.4375 C 29.257812 -24.613281 28.484375 -25.617188 27.484375 -26.453125 C 26.484375 -27.285156 25.300781 -27.925781 23.9375 -28.375 C 22.582031 -28.832031 21.09375 -29.0625 19.46875 -29.0625 C 17.800781 -29.0625 16.273438 -28.75 14.890625 -28.125 C 13.503906 -27.507812 12.3125 -26.664062 11.3125 -25.59375 C 10.3125 -24.519531 9.535156 -23.253906 8.984375 -21.796875 C 8.429688 -20.335938 8.15625 -18.75 8.15625 -17.03125 C 8.15625 -15.414062 8.429688 -13.898438 8.984375 -12.484375 C 9.535156 -11.078125 10.3125 -9.835938 11.3125 -8.765625 C 12.3125 -7.691406 13.503906 -6.84375 14.890625 -6.21875 C 16.273438 -5.601562 17.773438 -5.296875 19.390625 -5.296875 C 21.210938 -5.296875 22.835938 -5.734375 24.265625 -6.609375 C 25.691406 -7.492188 26.957031 -8.628906 28.0625 -10.015625 L 28.0625 -2.578125 C 26.71875 -1.523438 25.34375 -0.710938 23.9375 -0.140625 C 22.53125 0.429688 20.800781 0.71875 18.75 0.71875 C 16.363281 0.71875 14.132812 0.253906 12.0625 -0.671875 C 9.988281 -1.609375 8.195312 -2.882812 6.6875 -4.5 C 5.1875 -6.125 4.003906 -8.054688 3.140625 -10.296875 C 2.285156 -12.546875 1.859375 -14.957031 1.859375 -17.53125 C 1.859375 -20.113281 2.285156 -22.488281 3.140625 -24.65625 C 4.003906 -26.832031 5.222656 -28.679688 6.796875 -30.203125 C 8.367188 -31.734375 10.238281 -32.925781 12.40625 -33.78125 C 14.582031 -34.644531 16.984375 -35.078125 19.609375 -35.078125 C 22.234375 -35.078125 24.617188 -34.679688 26.765625 -33.890625 C 28.910156 -33.109375 30.734375 -32.007812 32.234375 -30.59375 C 33.742188 -29.1875 34.90625 -27.503906 35.71875 -25.546875 C 36.53125 -23.597656 36.9375 -21.429688 36.9375 -19.046875 Z M 36.9375 0 "/></g></g></g><g fill="#a6a6a6" fill-opacity="1"><g transform="translate(140.101493, 55.09186)"><g><path d="M 11.09375 -50.109375 L 11.09375 0 L 4.796875 0 L 4.796875 -50.109375 Z M 11.09375 -50.109375 "/></g></g></g><g fill="#a6a6a6" fill-opacity="1"><g transform="translate(152.770682, 55.09186)"><g><path d="M 36.9375 -2.359375 C 36.9375 0.453125 36.53125 3.003906 35.71875 5.296875 C 34.90625 7.585938 33.734375 9.539062 32.203125 11.15625 C 30.679688 12.78125 28.8125 14.046875 26.59375 14.953125 C 24.375 15.859375 21.832031 16.3125 18.96875 16.3125 C 17.0625 16.3125 15.164062 16.132812 13.28125 15.78125 C 11.394531 15.425781 9.519531 14.9375 7.65625 14.3125 L 9.15625 8.59375 C 10.6875 9.019531 12.25 9.410156 13.84375 9.765625 C 15.445312 10.128906 17.0625 10.3125 18.6875 10.3125 C 22.3125 10.3125 25.207031 9.367188 27.375 7.484375 C 29.550781 5.597656 30.640625 3.007812 30.640625 -0.28125 L 30.640625 -16.828125 C 30.640625 -18.535156 30.375 -20.128906 29.84375 -21.609375 C 29.320312 -23.085938 28.582031 -24.390625 27.625 -25.515625 C 26.675781 -26.640625 25.53125 -27.507812 24.1875 -28.125 C 22.851562 -28.75 21.375 -29.0625 19.75 -29.0625 C 18.03125 -29.0625 16.488281 -28.75 15.125 -28.125 C 13.769531 -27.507812 12.601562 -26.648438 11.625 -25.546875 C 10.65625 -24.453125 9.90625 -23.117188 9.375 -21.546875 C 8.851562 -19.972656 8.59375 -18.253906 8.59375 -16.390625 C 8.59375 -14.722656 8.878906 -13.207031 9.453125 -11.84375 C 10.023438 -10.488281 10.820312 -9.332031 11.84375 -8.375 C 12.875 -7.414062 14.09375 -6.660156 15.5 -6.109375 C 16.90625 -5.566406 18.441406 -5.296875 20.109375 -5.296875 C 21.546875 -5.296875 22.929688 -5.582031 24.265625 -6.15625 C 25.597656 -6.726562 26.882812 -7.375 28.125 -8.09375 L 28.125 -1.578125 C 26.9375 -0.910156 25.585938 -0.363281 24.078125 0.0625 C 22.578125 0.5 21.207031 0.71875 19.96875 0.71875 C 17.4375 0.71875 15.097656 0.273438 12.953125 -0.609375 C 10.804688 -1.492188 8.945312 -2.722656 7.375 -4.296875 C 5.800781 -5.867188 4.5625 -7.71875 3.65625 -9.84375 C 2.75 -11.96875 2.296875 -14.269531 2.296875 -16.75 C 2.296875 -19.375 2.722656 -21.804688 3.578125 -24.046875 C 4.441406 -26.296875 5.660156 -28.226562 7.234375 -29.84375 C 8.804688 -31.46875 10.675781 -32.742188 12.84375 -33.671875 C 15.019531 -34.609375 17.421875 -35.078125 20.046875 -35.078125 C 22.566406 -35.078125 24.863281 -34.609375 26.9375 -33.671875 C 29.019531 -32.742188 30.800781 -31.492188 32.28125 -29.921875 C 33.757812 -28.347656 34.90625 -26.535156 35.71875 -24.484375 C 36.53125 -22.429688 36.9375 -20.28125 36.9375 -18.03125 Z M 36.9375 -2.359375 "/></g></g></g><g fill="#a6a6a6" fill-opacity="1"><g transform="translate(189.346964, 55.09186)"><g><path d="M 37.71875 -17.171875 C 37.71875 -14.597656 37.253906 -12.210938 36.328125 -10.015625 C 35.398438 -7.828125 34.125 -5.941406 32.5 -4.359375 C 30.875 -2.785156 28.988281 -1.546875 26.84375 -0.640625 C 24.695312 0.265625 22.382812 0.71875 19.90625 0.71875 C 17.46875 0.71875 15.160156 0.273438 12.984375 -0.609375 C 10.816406 -1.492188 8.929688 -2.722656 7.328125 -4.296875 C 5.734375 -5.867188 4.457031 -7.75 3.5 -9.9375 C 2.550781 -12.132812 2.078125 -14.546875 2.078125 -17.171875 C 2.078125 -19.796875 2.566406 -22.207031 3.546875 -24.40625 C 4.523438 -26.601562 5.820312 -28.488281 7.4375 -30.0625 C 9.0625 -31.632812 10.945312 -32.863281 13.09375 -33.75 C 15.238281 -34.632812 17.507812 -35.078125 19.90625 -35.078125 C 22.332031 -35.078125 24.628906 -34.625 26.796875 -33.71875 C 28.972656 -32.8125 30.875 -31.554688 32.5 -29.953125 C 34.125 -28.359375 35.398438 -26.472656 36.328125 -24.296875 C 37.253906 -22.128906 37.71875 -19.753906 37.71875 -17.171875 Z M 19.90625 -5.296875 C 21.613281 -5.296875 23.160156 -5.59375 24.546875 -6.1875 C 25.929688 -6.789062 27.113281 -7.613281 28.09375 -8.65625 C 29.070312 -9.707031 29.820312 -10.960938 30.34375 -12.421875 C 30.875 -13.878906 31.140625 -15.460938 31.140625 -17.171875 C 31.140625 -18.890625 30.875 -20.476562 30.34375 -21.9375 C 29.820312 -23.394531 29.0625 -24.644531 28.0625 -25.6875 C 27.0625 -26.738281 25.867188 -27.5625 24.484375 -28.15625 C 23.097656 -28.757812 21.546875 -29.0625 19.828125 -29.0625 C 18.203125 -29.0625 16.707031 -28.773438 15.34375 -28.203125 C 13.988281 -27.628906 12.8125 -26.816406 11.8125 -25.765625 C 10.8125 -24.710938 10.035156 -23.457031 9.484375 -22 C 8.929688 -20.550781 8.65625 -18.941406 8.65625 -17.171875 C 8.65625 -15.359375 8.941406 -13.722656 9.515625 -12.265625 C 10.085938 -10.816406 10.875 -9.566406 11.875 -8.515625 C 12.882812 -7.460938 14.066406 -6.660156 15.421875 -6.109375 C 16.785156 -5.566406 18.28125 -5.296875 19.90625 -5.296875 Z M 19.90625 -5.296875 "/></g></g></g><g fill="#a6a6a6" fill-opacity="1"><g transform="translate(225.923251, 55.09186)"><g><path d="M 5.9375 -34.359375 L 15.96875 -7.734375 L 25.90625 -34.359375 L 32.78125 -34.359375 L 20.75 -2.71875 C 20.226562 -1.332031 19.597656 -0.414062 18.859375 0.03125 C 18.117188 0.488281 17.128906 0.71875 15.890625 0.71875 C 14.648438 0.71875 13.660156 0.488281 12.921875 0.03125 C 12.179688 -0.414062 11.546875 -1.332031 11.015625 -2.71875 L -0.9375 -34.359375 Z M 5.9375 -34.359375 "/></g></g></g><g fill="#a6a6a6" fill-opacity="1"><g transform="translate(254.482792, 55.09186)"><g><path d="M 13.75 -42.015625 C 13.75 -41.054688 13.425781 -40.179688 12.78125 -39.390625 C 12.132812 -38.609375 11.191406 -38.21875 9.953125 -38.21875 C 8.710938 -38.21875 7.769531 -38.609375 7.125 -39.390625 C 6.476562 -40.179688 6.15625 -41.054688 6.15625 -42.015625 C 6.15625 -42.972656 6.476562 -43.84375 7.125 -44.625 C 7.769531 -45.414062 8.710938 -45.8125 9.953125 -45.8125 C 11.191406 -45.8125 12.132812 -45.414062 12.78125 -44.625 C 13.425781 -43.84375 13.75 -42.972656 13.75 -42.015625 Z M 13.09375 -34.359375 L 13.09375 0 L 6.796875 0 L 6.796875 -34.359375 Z M 13.09375 -34.359375 "/></g></g></g><g fill="#a6a6a6" fill-opacity="1"><g transform="translate(271.160357, 55.09186)"><g><path d="M 28.5625 -34.359375 L 28.5625 -28.34375 L 12.3125 -28.34375 C 10.832031 -28.34375 9.84375 -28.078125 9.34375 -27.546875 C 8.84375 -27.023438 8.59375 -26.265625 8.59375 -25.265625 C 8.59375 -24.359375 9.175781 -23.554688 10.34375 -22.859375 C 11.507812 -22.171875 13.40625 -21.492188 16.03125 -20.828125 C 21.09375 -19.585938 24.734375 -18.109375 26.953125 -16.390625 C 29.171875 -14.671875 30.28125 -12.40625 30.28125 -9.59375 C 30.28125 -7.875 29.976562 -6.414062 29.375 -5.21875 C 28.78125 -4.03125 28.003906 -3.039062 27.046875 -2.25 C 26.097656 -1.46875 24.988281 -0.894531 23.71875 -0.53125 C 22.457031 -0.175781 21.160156 0 19.828125 0 L 2 0 L 2 -6.015625 L 19.75 -6.015625 C 21.039062 -6.015625 22.019531 -6.265625 22.6875 -6.765625 C 23.351562 -7.265625 23.6875 -8.113281 23.6875 -9.3125 C 23.6875 -10.40625 23.066406 -11.304688 21.828125 -12.015625 C 20.585938 -12.734375 18.75 -13.425781 16.3125 -14.09375 C 13.789062 -14.769531 11.644531 -15.441406 9.875 -16.109375 C 8.113281 -16.773438 6.660156 -17.535156 5.515625 -18.390625 C 3.171875 -20.160156 2 -22.378906 2 -25.046875 C 2 -28.203125 3.035156 -30.539062 5.109375 -32.0625 C 7.191406 -33.59375 10.019531 -34.359375 13.59375 -34.359375 Z M 28.5625 -34.359375 "/></g></g></g><g fill="#a6a6a6" fill-opacity="1"><g transform="translate(299.719886, 55.09186)"><g><path d="M 14.171875 -3.796875 C 14.171875 -2.597656 13.753906 -1.59375 12.921875 -0.78125 C 12.085938 0.0195312 11.097656 0.421875 9.953125 0.421875 C 8.804688 0.421875 7.8125 0.0195312 6.96875 -0.78125 C 6.132812 -1.59375 5.71875 -2.597656 5.71875 -3.796875 C 5.71875 -4.984375 6.132812 -5.984375 6.96875 -6.796875 C 7.8125 -7.609375 8.804688 -8.015625 9.953125 -8.015625 C 11.097656 -8.015625 12.085938 -7.609375 12.921875 -6.796875 C 13.753906 -5.984375 14.171875 -4.984375 14.171875 -3.796875 Z M 14.171875 -3.796875 "/></g></g></g><g fill="#a6a6a6" fill-opacity="1"><g transform="translate(316.397451, 55.09186)"><g><path d="M 13.75 -42.015625 C 13.75 -41.054688 13.425781 -40.179688 12.78125 -39.390625 C 12.132812 -38.609375 11.191406 -38.21875 9.953125 -38.21875 C 8.710938 -38.21875 7.769531 -38.609375 7.125 -39.390625 C 6.476562 -40.179688 6.15625 -41.054688 6.15625 -42.015625 C 6.15625 -42.972656 6.476562 -43.84375 7.125 -44.625 C 7.769531 -45.414062 8.710938 -45.8125 9.953125 -45.8125 C 11.191406 -45.8125 12.132812 -45.414062 12.78125 -44.625 C 13.425781 -43.84375 13.75 -42.972656 13.75 -42.015625 Z M 13.09375 -34.359375 L 13.09375 0 L 6.796875 0 L 6.796875 -34.359375 Z M 13.09375 -34.359375 "/></g></g></g><g fill="#a6a6a6" fill-opacity="1"><g transform="translate(333.075016, 55.09186)"><g><path d="M 37.71875 -17.171875 C 37.71875 -14.597656 37.253906 -12.210938 36.328125 -10.015625 C 35.398438 -7.828125 34.125 -5.941406 32.5 -4.359375 C 30.875 -2.785156 28.988281 -1.546875 26.84375 -0.640625 C 24.695312 0.265625 22.382812 0.71875 19.90625 0.71875 C 17.46875 0.71875 15.160156 0.273438 12.984375 -0.609375 C 10.816406 -1.492188 8.929688 -2.722656 7.328125 -4.296875 C 5.734375 -5.867188 4.457031 -7.75 3.5 -9.9375 C 2.550781 -12.132812 2.078125 -14.546875 2.078125 -17.171875 C 2.078125 -19.796875 2.566406 -22.207031 3.546875 -24.40625 C 4.523438 -26.601562 5.820312 -28.488281 7.4375 -30.0625 C 9.0625 -31.632812 10.945312 -32.863281 13.09375 -33.75 C 15.238281 -34.632812 17.507812 -35.078125 19.90625 -35.078125 C 22.332031 -35.078125 24.628906 -34.625 26.796875 -33.71875 C 28.972656 -32.8125 30.875 -31.554688 32.5 -29.953125 C 34.125 -28.359375 35.398438 -26.472656 36.328125 -24.296875 C 37.253906 -22.128906 37.71875 -19.753906 37.71875 -17.171875 Z M 19.90625 -5.296875 C 21.613281 -5.296875 23.160156 -5.59375 24.546875 -6.1875 C 25.929688 -6.789062 27.113281 -7.613281 28.09375 -8.65625 C 29.070312 -9.707031 29.820312 -10.960938 30.34375 -12.421875 C 30.875 -13.878906 31.140625 -15.460938 31.140625 -17.171875 C 31.140625 -18.890625 30.875 -20.476562 30.34375 -21.9375 C 29.820312 -23.394531 29.0625 -24.644531 28.0625 -25.6875 C 27.0625 -26.738281 25.867188 -27.5625 24.484375 -28.15625 C 23.097656 -28.757812 21.546875 -29.0625 19.828125 -29.0625 C 18.203125 -29.0625 16.707031 -28.773438 15.34375 -28.203125 C 13.988281 -27.628906 12.8125 -26.816406 11.8125 -25.765625 C 10.8125 -24.710938 10.035156 -23.457031 9.484375 -22 C 8.929688 -20.550781 8.65625 -18.941406 8.65625 -17.171875 C 8.65625 -15.359375 8.941406 -13.722656 9.515625 -12.265625 C 10.085938 -10.816406 10.875 -9.566406 11.875 -8.515625 C 12.882812 -7.460938 14.066406 -6.660156 15.421875 -6.109375 C 16.785156 -5.566406 18.28125 -5.296875 19.90625 -5.296875 Z M 19.90625 -5.296875 "/></g></g></g></svg>