<svg xmlns="http://www.w3.org/2000/svg" xmlns:xlink="http://www.w3.org/1999/xlink" width="500" zoomAndPan="magnify" viewBox="0 0 375 74.999997" height="100" preserveAspectRatio="xMidYMid meet" version="1.0"><defs><g/><clipPath id="67ccd531d5"><path d="M 7.5 22.128906 L 36.75 22.128906 L 36.75 52.128906 L 7.5 52.128906 Z M 7.5 22.128906 " clip-rule="nonzero"/></clipPath><clipPath id="58201422b8"><path d="M 26.484375 7.871094 L 55.734375 7.871094 L 55.734375 37.871094 L 26.484375 37.871094 Z M 26.484375 7.871094 " clip-rule="nonzero"/></clipPath><clipPath id="e2024fc50f"><path d="M 45.441406 22.128906 L 74.691406 22.128906 L 74.691406 52.128906 L 45.441406 52.128906 Z M 45.441406 22.128906 " clip-rule="nonzero"/></clipPath><clipPath id="2737f79160"><path d="M 26.484375 37.128906 L 55.734375 37.128906 L 55.734375 67.128906 L 26.484375 67.128906 Z M 26.484375 37.128906 " clip-rule="nonzero"/></clipPath></defs><g fill="#a6a6a6" fill-opacity="1"><g transform="translate(86.079339, 56.516805)"><g><path d="M 10.015625 -40.296875 L 10.015625 -13.8125 C 10.015625 -11.851562 10.609375 -10.234375 11.796875 -8.953125 C 12.992188 -7.671875 14.585938 -7.03125 16.578125 -7.03125 C 18.347656 -7.03125 19.828125 -7.671875 21.015625 -8.953125 C 22.203125 -10.234375 22.796875 -11.910156 22.796875 -13.984375 C 22.796875 -16.054688 22.191406 -17.734375 20.984375 -19.015625 C 19.773438 -20.304688 18.234375 -20.953125 16.359375 -20.953125 C 15.585938 -20.953125 14.882812 -20.875 14.25 -20.71875 C 13.613281 -20.570312 12.988281 -20.363281 12.375 -20.09375 L 12.375 -27.875 C 13.144531 -28.0625 13.882812 -28.238281 14.59375 -28.40625 C 15.300781 -28.582031 16.039062 -28.671875 16.8125 -28.671875 C 18.726562 -28.671875 20.5 -28.273438 22.125 -27.484375 C 23.757812 -26.703125 25.171875 -25.640625 26.359375 -24.296875 C 27.554688 -22.953125 28.488281 -21.394531 29.15625 -19.625 C 29.832031 -17.863281 30.171875 -16.003906 30.171875 -14.046875 C 30.171875 -11.972656 29.820312 -10.035156 29.125 -8.234375 C 28.4375 -6.429688 27.488281 -4.863281 26.28125 -3.53125 C 25.070312 -2.207031 23.625 -1.171875 21.9375 -0.421875 C 20.25 0.316406 18.425781 0.6875 16.46875 0.6875 C 14.4375 0.6875 12.570312 0.304688 10.875 -0.453125 C 9.1875 -1.222656 7.726562 -2.269531 6.5 -3.59375 C 5.269531 -4.914062 4.320312 -6.457031 3.65625 -8.21875 C 2.988281 -9.988281 2.65625 -11.851562 2.65625 -13.8125 L 2.65625 -40.296875 Z M 10.015625 -40.296875 "/></g></g></g><g fill="#a6a6a6" fill-opacity="1"><g transform="translate(116.363115, 56.516805)"><g><path d="M 10.078125 -40.296875 L 10.078125 0 L 2.703125 0 L 2.703125 -40.296875 Z M 10.078125 -40.296875 "/></g></g></g><g fill="#a6a6a6" fill-opacity="1"><g transform="translate(127.417123, 56.516805)"><g><path d="M 29.359375 0 L 22 0 L 22 -15.890625 C 22 -17.421875 21.453125 -18.703125 20.359375 -19.734375 C 19.265625 -20.773438 17.625 -21.296875 15.4375 -21.296875 C 14.550781 -21.296875 13.734375 -21.101562 12.984375 -20.71875 C 12.234375 -20.34375 11.578125 -19.816406 11.015625 -19.140625 C 10.460938 -18.472656 10.023438 -17.695312 9.703125 -16.8125 C 9.378906 -15.925781 9.21875 -14.984375 9.21875 -13.984375 C 9.21875 -13.066406 9.378906 -12.195312 9.703125 -11.375 C 10.023438 -10.550781 10.472656 -9.835938 11.046875 -9.234375 C 11.628906 -8.640625 12.3125 -8.160156 13.09375 -7.796875 C 13.882812 -7.429688 14.738281 -7.25 15.65625 -7.25 C 16.46875 -7.25 17.1875 -7.328125 17.8125 -7.484375 C 18.445312 -7.640625 19.128906 -7.851562 19.859375 -8.125 L 19.859375 -0.453125 C 18.898438 -0.265625 18.054688 -0.101562 17.328125 0.03125 C 16.597656 0.164062 15.890625 0.234375 15.203125 0.234375 C 13.203125 0.234375 11.382812 -0.109375 9.75 -0.796875 C 8.125 -1.492188 6.722656 -2.457031 5.546875 -3.6875 C 4.378906 -4.914062 3.46875 -6.382812 2.8125 -8.09375 C 2.164062 -9.800781 1.84375 -11.671875 1.84375 -13.703125 C 1.84375 -15.847656 2.1875 -17.84375 2.875 -19.6875 C 3.570312 -21.53125 4.523438 -23.113281 5.734375 -24.4375 C 6.941406 -25.757812 8.378906 -26.796875 10.046875 -27.546875 C 11.710938 -28.296875 13.546875 -28.671875 15.546875 -28.671875 C 17.660156 -28.671875 19.5625 -28.351562 21.25 -27.71875 C 22.9375 -27.09375 24.382812 -26.222656 25.59375 -25.109375 C 26.800781 -23.992188 27.726562 -22.6875 28.375 -21.1875 C 29.03125 -19.6875 29.359375 -18.078125 29.359375 -16.359375 Z M 29.359375 0 "/></g></g></g><g fill="#a6a6a6" fill-opacity="1"><g transform="translate(157.7009, 56.516805)"><g><path d="M 20.671875 -27.984375 L 20.671875 -20.609375 L 15.609375 -20.609375 C 13.648438 -20.609375 12.070312 -19.992188 10.875 -18.765625 C 9.6875 -17.535156 9.09375 -15.941406 9.09375 -13.984375 C 9.09375 -12.035156 9.6875 -10.445312 10.875 -9.21875 C 12.070312 -7.988281 13.648438 -7.375 15.609375 -7.375 L 20.671875 -7.375 L 20.671875 0 L 15.3125 0 C 13.320312 0 11.488281 -0.316406 9.8125 -0.953125 C 8.144531 -1.585938 6.71875 -2.5 5.53125 -3.6875 C 4.34375 -4.875 3.410156 -6.332031 2.734375 -8.0625 C 2.066406 -9.789062 1.734375 -11.765625 1.734375 -13.984375 C 1.734375 -16.210938 2.066406 -18.203125 2.734375 -19.953125 C 3.410156 -21.703125 4.351562 -23.171875 5.5625 -24.359375 C 6.769531 -25.546875 8.195312 -26.445312 9.84375 -27.0625 C 11.5 -27.675781 13.320312 -27.984375 15.3125 -27.984375 Z M 20.671875 -27.984375 "/></g></g></g><g fill="#a6a6a6" fill-opacity="1"><g transform="translate(178.369798, 56.516805)"><g><path d="M 10.25 -40.296875 L 10.25 -18.546875 L 12.09375 -18.546875 C 12.976562 -18.546875 13.695312 -18.789062 14.25 -19.28125 C 14.800781 -19.78125 15.269531 -20.472656 15.65625 -21.359375 L 18.59375 -27.984375 L 26.828125 -27.984375 C 26.140625 -26.523438 25.476562 -25.035156 24.84375 -23.515625 C 24.207031 -22.003906 23.507812 -20.535156 22.75 -19.109375 C 22.320312 -18.347656 21.828125 -17.707031 21.265625 -17.1875 C 20.710938 -16.664062 20.035156 -16.347656 19.234375 -16.234375 L 19.234375 -16.0625 C 21.648438 -15.675781 23.421875 -14.820312 24.546875 -13.5 C 25.679688 -12.175781 26.25 -10.132812 26.25 -7.375 L 26.25 0 L 18.890625 0 L 18.890625 -6.625 C 18.890625 -8.351562 18.503906 -9.582031 17.734375 -10.3125 C 16.960938 -11.039062 15.925781 -11.40625 14.625 -11.40625 L 10.25 -11.40625 L 10.25 0 L 2.875 0 L 2.875 -40.296875 Z M 10.25 -40.296875 "/></g></g></g><g fill="#a6a6a6" fill-opacity="1"><g transform="translate(205.429419, 56.516805)"><g><path d="M 10.015625 -40.296875 L 10.015625 -13.8125 C 10.015625 -11.851562 10.609375 -10.234375 11.796875 -8.953125 C 12.992188 -7.671875 14.585938 -7.03125 16.578125 -7.03125 C 18.347656 -7.03125 19.828125 -7.671875 21.015625 -8.953125 C 22.203125 -10.234375 22.796875 -11.910156 22.796875 -13.984375 C 22.796875 -16.054688 22.191406 -17.734375 20.984375 -19.015625 C 19.773438 -20.304688 18.234375 -20.953125 16.359375 -20.953125 C 15.585938 -20.953125 14.882812 -20.875 14.25 -20.71875 C 13.613281 -20.570312 12.988281 -20.363281 12.375 -20.09375 L 12.375 -27.875 C 13.144531 -28.0625 13.882812 -28.238281 14.59375 -28.40625 C 15.300781 -28.582031 16.039062 -28.671875 16.8125 -28.671875 C 18.726562 -28.671875 20.5 -28.273438 22.125 -27.484375 C 23.757812 -26.703125 25.171875 -25.640625 26.359375 -24.296875 C 27.554688 -22.953125 28.488281 -21.394531 29.15625 -19.625 C 29.832031 -17.863281 30.171875 -16.003906 30.171875 -14.046875 C 30.171875 -11.972656 29.820312 -10.035156 29.125 -8.234375 C 28.4375 -6.429688 27.488281 -4.863281 26.28125 -3.53125 C 25.070312 -2.207031 23.625 -1.171875 21.9375 -0.421875 C 20.25 0.316406 18.425781 0.6875 16.46875 0.6875 C 14.4375 0.6875 12.570312 0.304688 10.875 -0.453125 C 9.1875 -1.222656 7.726562 -2.269531 6.5 -3.59375 C 5.269531 -4.914062 4.320312 -6.457031 3.65625 -8.21875 C 2.988281 -9.988281 2.65625 -11.851562 2.65625 -13.8125 L 2.65625 -40.296875 Z M 10.015625 -40.296875 "/></g></g></g><g fill="#a6a6a6" fill-opacity="1"><g transform="translate(235.713195, 56.516805)"><g><path d="M 30.171875 -13.984375 C 30.171875 -11.910156 29.832031 -9.984375 29.15625 -8.203125 C 28.488281 -6.421875 27.53125 -4.863281 26.28125 -3.53125 C 25.03125 -2.207031 23.53125 -1.171875 21.78125 -0.421875 C 20.039062 0.316406 18.113281 0.6875 16 0.6875 C 13.925781 0.6875 12.015625 0.316406 10.265625 -0.421875 C 8.523438 -1.171875 7.03125 -2.195312 5.78125 -3.5 C 4.539062 -4.8125 3.570312 -6.359375 2.875 -8.140625 C 2.1875 -9.929688 1.84375 -11.878906 1.84375 -13.984375 C 1.84375 -16.097656 2.1875 -18.054688 2.875 -19.859375 C 3.570312 -21.671875 4.539062 -23.226562 5.78125 -24.53125 C 7.03125 -25.832031 8.523438 -26.847656 10.265625 -27.578125 C 12.015625 -28.304688 13.925781 -28.671875 16 -28.671875 C 18.113281 -28.671875 20.039062 -28.296875 21.78125 -27.546875 C 23.53125 -26.796875 25.019531 -25.769531 26.25 -24.46875 C 27.476562 -23.164062 28.4375 -21.609375 29.125 -19.796875 C 29.820312 -17.992188 30.171875 -16.054688 30.171875 -13.984375 Z M 16 -6.671875 C 18.070312 -6.671875 19.722656 -7.304688 20.953125 -8.578125 C 22.179688 -9.847656 22.796875 -11.648438 22.796875 -13.984375 C 22.796875 -16.328125 22.179688 -18.128906 20.953125 -19.390625 C 19.722656 -20.660156 18.054688 -21.296875 15.953125 -21.296875 C 13.953125 -21.296875 12.328125 -20.679688 11.078125 -19.453125 C 9.835938 -18.234375 9.21875 -16.410156 9.21875 -13.984375 C 9.21875 -11.648438 9.828125 -9.847656 11.046875 -8.578125 C 12.273438 -7.304688 13.925781 -6.671875 16 -6.671875 Z M 16 -6.671875 "/></g></g></g><g fill="#a6a6a6" fill-opacity="1"><g transform="translate(265.996972, 56.516805)"><g><path d="M 0.40625 -27.984375 L 1.953125 -27.984375 C 4.023438 -27.984375 5.859375 -27.484375 7.453125 -26.484375 C 9.046875 -25.484375 10.34375 -24.117188 11.34375 -22.390625 C 12.113281 -24.117188 13.226562 -25.484375 14.6875 -26.484375 C 16.144531 -27.484375 17.984375 -27.984375 20.203125 -27.984375 L 22 -27.984375 L 22 -21.078125 L 20.5625 -21.078125 C 19.789062 -21.078125 19.046875 -20.921875 18.328125 -20.609375 C 17.617188 -20.304688 16.992188 -19.859375 16.453125 -19.265625 C 15.921875 -18.671875 15.492188 -17.929688 15.171875 -17.046875 C 14.847656 -16.160156 14.6875 -15.140625 14.6875 -13.984375 C 14.6875 -12.835938 14.847656 -11.820312 15.171875 -10.9375 C 15.492188 -10.050781 15.914062 -9.3125 16.4375 -8.71875 C 16.957031 -8.125 17.5625 -7.671875 18.25 -7.359375 C 18.9375 -7.054688 19.644531 -6.90625 20.375 -6.90625 L 22.046875 -6.90625 L 22.046875 0 L 20.4375 0 C 18.289062 0 16.421875 -0.523438 14.828125 -1.578125 C 13.234375 -2.640625 11.992188 -3.972656 11.109375 -5.578125 C 10.804688 -5.003906 10.441406 -4.390625 10.015625 -3.734375 C 9.597656 -3.085938 9.039062 -2.484375 8.34375 -1.921875 C 7.65625 -1.367188 6.8125 -0.910156 5.8125 -0.546875 C 4.8125 -0.179688 3.582031 0 2.125 0 L 0.40625 0 L 0.40625 -6.90625 L 1.953125 -6.90625 C 2.648438 -6.90625 3.351562 -7.046875 4.0625 -7.328125 C 4.769531 -7.617188 5.390625 -8.050781 5.921875 -8.625 C 6.460938 -9.207031 6.90625 -9.941406 7.25 -10.828125 C 7.59375 -11.710938 7.765625 -12.765625 7.765625 -13.984375 C 7.765625 -16.023438 7.242188 -17.71875 6.203125 -19.0625 C 5.171875 -20.40625 3.738281 -21.078125 1.90625 -21.078125 L 0.40625 -21.078125 Z M 0.40625 -27.984375 "/></g></g></g><g fill="#a6a6a6" fill-opacity="1"><g transform="translate(290.858129, 56.516805)"><g><path d="M -0.234375 -27.296875 L 2.296875 -27.296875 L 11.96875 -2.875 C 12.050781 -2.6875 12.164062 -2.445312 12.3125 -2.15625 C 12.46875 -1.875 12.625 -1.734375 12.78125 -1.734375 C 12.894531 -1.734375 13.007812 -1.796875 13.125 -1.921875 C 13.238281 -2.054688 13.394531 -2.375 13.59375 -2.875 L 23.265625 -27.296875 L 25.796875 -27.296875 L 15.484375 -1.15625 C 15.179688 -0.425781 14.804688 0.0390625 14.359375 0.25 C 13.921875 0.46875 13.394531 0.578125 12.78125 0.578125 C 11.394531 0.578125 10.53125 0.0976562 10.1875 -0.859375 Z M -0.234375 -27.296875 "/></g></g></g><g fill="#a6a6a6" fill-opacity="1"><g transform="translate(314.693595, 56.516805)"><g><path d="M 8.125 -35 C 8.125 -34.507812 7.957031 -34.097656 7.625 -33.765625 C 7.300781 -33.441406 6.890625 -33.28125 6.390625 -33.28125 C 5.890625 -33.28125 5.472656 -33.441406 5.140625 -33.765625 C 4.816406 -34.097656 4.65625 -34.507812 4.65625 -35 C 4.65625 -35.5 4.816406 -35.910156 5.140625 -36.234375 C 5.472656 -36.566406 5.890625 -36.734375 6.390625 -36.734375 C 6.890625 -36.734375 7.300781 -36.566406 7.625 -36.234375 C 7.957031 -35.910156 8.125 -35.5 8.125 -35 Z M 5.296875 -27.296875 L 7.484375 -27.296875 L 7.484375 0 L 5.296875 0 Z M 5.296875 -27.296875 "/></g></g></g><g fill="#a6a6a6" fill-opacity="1"><g transform="translate(325.747603, 56.516805)"><g><path d="M 21.359375 -27.296875 L 21.359375 -25.21875 L 9.15625 -25.21875 C 8.613281 -25.21875 8.070312 -25.117188 7.53125 -24.921875 C 7 -24.734375 6.507812 -24.457031 6.0625 -24.09375 C 5.625 -23.726562 5.257812 -23.257812 4.96875 -22.6875 C 4.6875 -22.113281 4.546875 -21.460938 4.546875 -20.734375 C 4.546875 -19.804688 4.765625 -19.046875 5.203125 -18.453125 C 5.648438 -17.859375 6.238281 -17.359375 6.96875 -16.953125 C 7.695312 -16.554688 8.539062 -16.222656 9.5 -15.953125 C 10.457031 -15.679688 11.457031 -15.429688 12.5 -15.203125 C 13.800781 -14.890625 15.101562 -14.570312 16.40625 -14.25 C 17.71875 -13.925781 18.890625 -13.472656 19.921875 -12.890625 C 20.960938 -12.316406 21.804688 -11.566406 22.453125 -10.640625 C 23.109375 -9.722656 23.4375 -8.519531 23.4375 -7.03125 C 23.4375 -4.570312 22.59375 -2.785156 20.90625 -1.671875 C 19.21875 -0.554688 16.972656 0 14.171875 0 L 2.1875 0 L 2.1875 -2.078125 L 14.625 -2.078125 C 16.851562 -2.078125 18.472656 -2.488281 19.484375 -3.3125 C 20.503906 -4.132812 21.015625 -5.253906 21.015625 -6.671875 C 21.015625 -7.941406 20.675781 -8.957031 20 -9.71875 C 19.332031 -10.488281 18.460938 -11.113281 17.390625 -11.59375 C 16.316406 -12.082031 15.109375 -12.46875 13.765625 -12.75 C 12.421875 -13.039062 11.09375 -13.359375 9.78125 -13.703125 C 8.75 -13.972656 7.769531 -14.269531 6.84375 -14.59375 C 5.925781 -14.914062 5.117188 -15.347656 4.421875 -15.890625 C 3.734375 -16.429688 3.175781 -17.082031 2.75 -17.84375 C 2.332031 -18.613281 2.125 -19.554688 2.125 -20.671875 C 2.125 -21.628906 2.304688 -22.519531 2.671875 -23.34375 C 3.035156 -24.164062 3.523438 -24.863281 4.140625 -25.4375 C 4.753906 -26.019531 5.472656 -26.472656 6.296875 -26.796875 C 7.128906 -27.128906 8.003906 -27.296875 8.921875 -27.296875 Z M 21.359375 -27.296875 "/></g></g></g><g clip-path="url(#67ccd531d5)"><path fill="#000000" d="M 36.460938 28.480469 L 22.324219 22.207031 C 22.191406 22.148438 22.058594 22.148438 21.925781 22.207031 L 7.789062 28.480469 C 7.597656 28.566406 7.5 28.714844 7.5 28.921875 L 7.5 45.332031 C 7.5 45.539062 7.597656 45.6875 7.789062 45.769531 L 21.925781 52.042969 C 22.058594 52.105469 22.191406 52.105469 22.324219 52.042969 L 36.460938 45.769531 C 36.652344 45.6875 36.75 45.539062 36.75 45.332031 L 36.75 28.921875 C 36.75 28.714844 36.652344 28.566406 36.460938 28.480469 Z M 21.636719 50.859375 L 8.476562 45.019531 L 8.476562 29.699219 L 21.636719 35.542969 Z M 22.125 34.699219 L 9.140625 28.9375 L 22.125 23.175781 L 35.109375 28.9375 Z M 35.773438 45.019531 L 22.613281 50.859375 L 22.613281 35.542969 L 35.773438 29.699219 Z M 35.773438 45.019531 " fill-opacity="1" fill-rule="nonzero"/></g><g clip-path="url(#58201422b8)"><path fill="#000000" d="M 55.445312 14.222656 L 41.308594 7.949219 C 41.175781 7.890625 41.042969 7.890625 40.910156 7.949219 L 26.769531 14.222656 C 26.578125 14.308594 26.484375 14.457031 26.484375 14.664062 L 26.484375 31.074219 C 26.484375 31.28125 26.578125 31.429688 26.769531 31.511719 L 40.910156 37.785156 C 41.042969 37.847656 41.175781 37.847656 41.308594 37.785156 L 55.445312 31.511719 C 55.636719 31.429688 55.734375 31.28125 55.734375 31.074219 L 55.734375 14.664062 C 55.734375 14.457031 55.636719 14.308594 55.445312 14.222656 Z M 40.621094 36.601562 L 27.457031 30.761719 L 27.457031 15.441406 L 40.621094 21.285156 Z M 41.109375 20.441406 L 28.125 14.679688 L 41.109375 8.917969 L 54.089844 14.679688 Z M 54.757812 30.761719 L 41.59375 36.601562 L 41.59375 21.285156 L 54.757812 15.441406 Z M 54.757812 30.761719 " fill-opacity="1" fill-rule="nonzero"/></g><g clip-path="url(#e2024fc50f)"><path fill="#000000" d="M 74.402344 28.480469 L 60.265625 22.207031 C 60.132812 22.148438 60 22.148438 59.867188 22.207031 L 45.726562 28.480469 C 45.535156 28.566406 45.441406 28.714844 45.441406 28.921875 L 45.441406 45.332031 C 45.441406 45.539062 45.535156 45.6875 45.726562 45.769531 L 59.867188 52.042969 C 60 52.105469 60.132812 52.105469 60.265625 52.042969 L 74.402344 45.769531 C 74.59375 45.6875 74.691406 45.539062 74.691406 45.332031 L 74.691406 28.921875 C 74.691406 28.714844 74.59375 28.566406 74.402344 28.480469 Z M 59.578125 50.859375 L 46.414062 45.019531 L 46.414062 29.699219 L 59.578125 35.542969 Z M 60.066406 34.699219 L 47.082031 28.9375 L 60.066406 23.175781 L 73.046875 28.9375 Z M 73.714844 45.019531 L 60.550781 50.859375 L 60.550781 35.542969 L 73.714844 29.699219 Z M 73.714844 45.019531 " fill-opacity="1" fill-rule="nonzero"/></g><g clip-path="url(#2737f79160)"><path fill="#000000" d="M 55.445312 43.480469 L 41.308594 37.207031 C 41.175781 37.148438 41.042969 37.148438 40.910156 37.207031 L 26.769531 43.480469 C 26.578125 43.566406 26.484375 43.714844 26.484375 43.921875 L 26.484375 60.332031 C 26.484375 60.539062 26.578125 60.6875 26.769531 60.769531 L 40.910156 67.042969 C 41.042969 67.105469 41.175781 67.105469 41.308594 67.042969 L 55.445312 60.769531 C 55.636719 60.6875 55.734375 60.539062 55.734375 60.332031 L 55.734375 43.921875 C 55.734375 43.714844 55.636719 43.566406 55.445312 43.480469 Z M 40.621094 65.859375 L 27.457031 60.019531 L 27.457031 44.699219 L 40.621094 50.542969 Z M 41.109375 49.699219 L 28.125 43.9375 L 41.109375 38.175781 L 54.089844 43.9375 Z M 54.757812 60.019531 L 41.59375 65.859375 L 41.59375 50.542969 L 54.757812 44.699219 Z M 54.757812 60.019531 " fill-opacity="1" fill-rule="nonzero"/></g></svg>